<?xml version="1.0" standalone="no"?>
<!DOCTYPE svg PUBLIC "-//W3C//DTD SVG 1.1//EN" "http://www.w3.org/Graphics/SVG/1.1/DTD/svg11.dtd">
<svg width="1656" height="421" viewBox="0 0 1656 421" fill="none" xmlns="http://www.w3.org/2000/svg">
<path d="M733.2 0.534475C732.533 0.801142 722.933 1.46781 711.867 1.86781C654.533 3.86781 634 5.20114 553.2 11.8678C527.2 14.1345 485.333 18.5345 464.533 21.3345C459.067 22.0011 449.467 23.2011 443.2 23.8678C436.933 24.5345 429.067 25.7345 425.867 26.4011C422.533 27.2011 417.733 27.8678 415.2 27.8678C412.667 27.8678 405.467 28.6678 399.2 29.7345C392.933 30.9345 381.6 32.6678 373.867 33.8678C340.4 39.0678 312.533 43.7345 304.533 45.4678C301.2 46.1345 294.933 47.2011 290.533 47.8678C286.133 48.4011 279.867 49.6011 276.533 50.2678C270.8 51.6011 263.067 53.2011 239.867 57.8678C220.533 61.8678 208.8 64.4011 189.2 69.2011C185.6 70.1345 179.733 71.3345 176.267 72.0011C172.8 72.5345 168.8 73.6011 167.333 74.4011C165.867 75.2011 163.333 75.8678 161.733 75.8678C160.267 75.8678 156.133 76.6678 152.667 77.7345C149.333 78.8011 142.933 80.6678 138.533 81.8678C134.133 82.9345 127.067 84.9345 122.8 86.2678C113.067 89.2011 113.067 88.8011 120.533 117.068C122.4 124.268 122.267 124.401 97.8667 131.868C90.1333 134.268 81.7333 136.934 79.2 137.868C76.6667 138.801 70.9333 140.534 66.5333 141.868C62.1333 143.068 56.4 144.934 53.8667 145.868C51.3333 146.801 45.8667 148.534 41.8667 149.734C37.8667 150.801 29.0667 153.601 22.2667 155.868C15.6 158.001 9.2 159.868 8.13333 159.868C7.06667 159.868 4.8 161.068 3.06667 162.401L0 164.934L7.86667 175.334C12.1333 181.201 16.4 186.401 17.2 187.201C18 187.868 21.0667 191.868 23.8667 195.868C26.6667 199.868 29.3333 203.468 29.8667 203.868C30.8 204.534 70.4 257.068 80.2667 270.668L86.1333 278.668L87.2 348.801C88.1333 403.734 88.8 419.201 90.1333 420.001C92.4 421.468 94.4 420.934 117.2 413.868C120.133 412.934 126.4 411.201 131.2 409.868C136 408.668 142.267 406.801 145.2 406.001C148.133 405.068 153.867 403.334 157.867 402.134C161.867 401.068 168.8 399.068 173.2 397.868C177.6 396.534 183.6 394.801 186.533 393.868C193.333 391.868 205.867 388.268 215.2 385.601C219.2 384.401 224.533 382.668 226.933 381.734C229.333 380.668 232.4 379.868 233.867 379.868C235.333 379.868 238.4 379.068 240.8 378.001C243.2 377.068 248.8 375.201 253.2 373.868C257.6 372.534 263.6 370.801 266.533 369.868C276 366.934 286.4 364.134 291.6 363.201C299.2 362.001 297.867 358.134 289.2 356.801C285.467 356.134 278.4 354.934 273.2 353.868C256.4 350.534 248 349.068 239.867 347.868C235.467 347.201 229.733 346.134 227.2 345.334C224.667 344.534 220.4 343.868 217.6 343.868C211.2 343.868 208.533 342.801 208.533 339.868C208.533 337.601 215.733 335.201 232.267 331.734C235.333 331.068 239.067 330.001 240.4 329.201C241.867 328.534 244.4 327.868 246.133 327.868C247.867 327.868 251.867 327.068 255.2 326.001C262.133 323.868 272.133 321.334 279.867 319.868C282.8 319.334 290.667 317.468 297.2 315.868C303.867 314.401 311.067 312.801 313.2 312.401C315.467 312.001 321.067 310.934 325.867 309.868C330.667 308.801 339.467 307.068 345.6 305.868C351.6 304.801 361.2 302.934 366.933 301.868C372.533 300.801 379.067 299.601 381.2 299.334C392.933 297.601 404.667 295.468 411.467 293.734C415.733 292.668 421.467 291.868 424.133 291.868C426.933 291.868 434 291.068 439.867 290.001C445.733 288.934 457.467 287.201 465.867 286.001C474.267 284.934 486.267 283.334 492.533 282.401C498.8 281.601 509.333 280.401 515.867 279.734C522.533 279.201 531.733 278.134 536.533 277.334C541.333 276.534 549.467 275.868 554.533 275.868C559.733 275.734 566.533 275.201 569.867 274.401C573.2 273.734 585.733 272.668 597.867 271.868C610 271.201 626.8 270.001 635.2 269.334C708 263.201 862.8 263.201 949.867 269.334C961.2 270.134 980.4 271.334 992.533 271.868C1004.67 272.534 1018.13 273.734 1022.53 274.401C1026.93 275.201 1034.4 275.868 1039.2 275.868C1044 275.868 1053.6 276.801 1060.53 277.868C1067.47 278.934 1077.07 279.868 1081.87 279.868C1086.67 279.868 1092.67 280.401 1095.2 281.201C1097.73 281.868 1106.53 283.068 1114.53 283.734C1129.47 285.201 1142.13 286.668 1161.2 289.334C1167.07 290.268 1176.4 291.334 1181.87 291.868C1187.33 292.534 1195.2 293.601 1199.2 294.401C1208.27 296.134 1224.13 298.534 1233.87 299.868C1246 301.468 1260.8 304.001 1267.2 305.468C1270.53 306.268 1277.07 307.334 1281.87 308.001C1286.67 308.534 1293.87 309.734 1297.87 310.534C1301.87 311.334 1310 312.934 1315.87 314.001C1337.33 318.001 1364.53 323.468 1372.53 325.468C1375.87 326.268 1381.2 327.334 1384.53 328.001C1387.87 328.534 1393.2 329.601 1396.53 330.401C1399.87 331.201 1405.2 332.534 1408.53 333.468C1411.87 334.268 1416.93 335.334 1419.87 336.001C1430.13 338.001 1438 340.668 1437.73 342.001C1437.2 343.734 1414.13 348.668 1391.87 351.868C1387.47 352.534 1382.13 353.601 1380.13 354.401C1378 355.201 1374.4 355.868 1372.13 355.868C1366.4 355.868 1357.87 358.401 1357.87 360.001C1357.87 361.601 1361.2 362.934 1372.53 365.868C1377.33 367.201 1383.6 368.934 1386.53 369.868C1392.13 371.601 1403.6 375.068 1413.87 378.001C1417.2 378.801 1422.93 380.534 1426.53 381.601C1430.27 382.668 1436.8 384.534 1441.2 385.868C1445.6 387.068 1451.87 388.934 1455.2 389.868C1458.53 390.801 1464.8 392.534 1469.2 393.868C1473.6 395.068 1479.07 396.668 1481.2 397.468C1483.47 398.134 1487.33 399.334 1489.87 399.868C1492.4 400.401 1496.4 401.601 1498.53 402.268C1502.8 403.734 1510.93 406.134 1523.2 409.601C1542.93 415.201 1546.93 416.401 1551.2 417.868C1553.73 418.801 1558.13 419.868 1560.8 420.401C1565.33 421.201 1565.87 420.934 1566.4 418.268C1566.8 416.534 1567.47 388.801 1568 356.534C1568.53 324.268 1569.2 294.268 1569.33 289.868C1569.6 285.468 1569.73 280.934 1569.73 279.734C1569.87 278.001 1576.8 267.868 1587.33 254.134C1588.93 252.134 1598.13 240.134 1607.73 227.334C1617.33 214.668 1632 195.334 1640.4 184.534L1655.6 164.801L1652.67 162.268C1650.93 160.934 1648.53 159.868 1647.33 159.868C1645.33 159.868 1638.13 157.734 1627.2 153.868C1624.67 152.934 1618.93 151.201 1614.53 149.868C1610.13 148.668 1604.4 146.801 1601.87 145.868C1599.33 144.934 1593.6 143.068 1589.2 141.868C1584.8 140.534 1579.07 138.801 1576.53 137.868C1574 136.934 1568.27 135.068 1563.87 133.868C1559.47 132.534 1553.87 130.668 1551.47 129.734C1549.07 128.668 1545.6 127.868 1543.87 127.868C1542.13 127.868 1540.27 127.201 1539.87 126.401C1539.33 125.601 1537.33 125.468 1535.07 125.868C1531.47 126.668 1531.2 126.401 1531.2 122.934C1531.2 120.934 1532.13 116.401 1533.2 112.801C1534.27 109.334 1536.13 103.601 1537.33 99.8678C1538.53 96.2678 1539.2 92.2678 1538.93 91.0678C1538.53 88.8011 1526.67 84.1345 1520.8 84.0011C1519.07 83.8678 1516.53 83.2011 1515.07 82.4011C1513.6 81.6011 1509.6 80.5345 1506.13 79.8678C1502.67 79.2011 1497.2 78.0011 1493.87 77.2011C1490.53 76.2678 1484.53 74.8011 1480.53 73.8678C1476.53 72.9345 1470.27 71.3345 1466.53 70.5345C1462.93 69.6011 1457.2 68.4011 1453.87 67.7345C1450.53 67.2011 1445.2 66.1345 1441.87 65.3345C1431.07 62.6678 1406.4 57.3345 1388.53 53.8678C1382.27 52.8011 1373.47 50.9345 1368.93 49.8678C1364.4 48.8011 1359.33 47.8678 1357.6 47.8678C1356 47.8678 1350.67 47.0678 1345.87 46.0011C1323.6 41.0678 1224.4 25.4678 1202.53 23.3345C1199.6 23.0678 1192.4 22.2678 1186.53 21.4678C1159.6 17.7345 1114.27 13.0678 1075.87 10.0011C1062 8.80114 1042.4 7.20114 1032.53 6.40114C1022.67 5.46781 1003.47 4.40114 989.867 3.73448C976.267 3.20114 952.933 2.00114 937.867 1.33448C912.267 0.134475 736.133 -0.532192 733.2 0.534475ZM993.867 49.8678C995.867 50.9345 1000.93 51.7345 1006.4 51.8678H1015.6L1014.93 72.6678C1014.13 95.2011 1013.07 98.4011 1007.2 96.5345C1004 95.4678 999.333 86.5345 999.2 81.4678C999.2 75.4678 993.867 65.4678 989.867 63.8678C986 62.2678 981.333 62.9345 978.133 65.6011C970.267 71.8678 964.133 112.534 964.133 157.201C964.267 186.268 966.933 196.668 975.467 201.868C980.133 204.534 985.733 203.601 989.467 199.468C993.2 195.468 994.533 192.401 996.533 183.868C998.667 174.668 999.867 173.201 1005.2 173.201C1010.27 173.201 1011.2 174.801 1011.2 182.934C1011.07 195.068 1002.8 210.934 993.6 216.668C986 221.468 970.8 221.868 962.267 217.468C950.667 211.468 942.8 199.601 937.6 180.134C934 166.268 933.733 124.934 937.2 107.068C942.933 77.6011 953.467 58.4011 968.4 50.5345C974.267 47.4678 988.933 47.0678 993.867 49.8678ZM797.467 50.6678C818.8 55.8678 836.533 72.8011 846.533 97.8678C853.6 115.468 855.6 136.268 852 153.868C847.467 176.001 838.533 189.868 822.533 199.601C814.667 204.534 814.4 204.534 800.533 204.534C787.333 204.534 786 204.268 777.867 200.134C763.6 192.934 752.267 180.401 743.6 162.534C736.267 147.201 734.667 139.734 734.667 119.201C734.667 99.0678 735.467 95.3345 743.467 79.2011C754.267 57.4678 776.533 45.7345 797.467 50.6678ZM642.533 53.7345C642.667 54.5345 643.6 63.8678 644.533 74.4011C646.133 95.0678 646 95.8678 639.467 95.8678C636.267 95.8678 631.2 89.2011 631.2 84.9345C631.2 81.8678 626.4 72.6678 623.467 70.2678C613.467 61.6011 599.2 68.2678 599.2 81.4678C599.333 90.6678 605.067 98.4011 624.667 116.001C656.8 144.801 663.467 155.468 663.6 178.534C663.6 190.268 663.2 191.868 659.067 200.401C654 210.801 646.8 217.734 636.8 221.601C631.867 223.601 627.6 224.001 615.867 223.734C607.867 223.601 599.067 224.001 596.4 224.534C589.6 225.868 587.2 223.068 587.2 213.468C587.2 209.334 586.533 200.401 585.733 193.868C584 178.668 584.667 175.868 589.733 175.868C594.533 175.868 599.2 181.201 599.2 186.801C599.2 190.801 603.333 200.134 606.933 204.268C614.4 212.801 629.733 212.134 636.8 203.201C639.467 199.734 639.867 197.734 639.867 187.734C639.867 171.468 638.667 169.734 602.933 136.268C595.733 129.468 586 117.601 582.133 110.668C579.2 105.601 576.533 95.6011 576.533 89.8678C576.533 78.6678 582.133 65.8678 589.467 60.2678C599.067 52.9345 602.267 52.1345 623.067 52.2678C635.333 52.2678 642.267 52.8011 642.533 53.7345ZM1085.6 59.7345C1094.53 66.0011 1099.6 74.5345 1104.8 91.8678C1106.93 99.0678 1107.33 104.668 1107.33 124.534C1107.33 150.268 1104.8 168.534 1099.2 184.534C1097.6 188.934 1096 193.868 1095.6 195.468C1095.2 197.068 1094.13 199.201 1093.07 200.001C1092 200.801 1091.2 202.134 1091.2 202.801C1091.2 204.801 1080.93 217.734 1076.93 220.668C1072.67 223.868 1061.47 227.868 1057.07 227.868C1050.4 227.868 1040.4 223.334 1034.67 217.601C1022.13 205.334 1016.67 186.668 1016.53 156.534C1016.4 111.868 1029.07 73.7345 1048.67 59.7345C1058.13 52.9345 1076.13 52.9345 1085.6 59.7345ZM558.933 65.3345C559.2 68.4011 558.667 70.6678 557.333 71.8678C554.533 74.0011 554.533 85.3345 557.2 103.868C558.267 111.601 560 126.001 561.2 135.868C566 179.068 567.067 189.068 568 197.868C568.8 207.468 570.8 212.801 574.4 215.734C575.6 216.801 576.533 219.601 576.533 222.001C576.533 227.334 577.2 227.068 554.8 229.334C541.333 230.801 538.8 230.668 537.733 229.068C535.733 225.868 536.4 222.268 540 217.601C543.2 213.334 543.333 212.934 541.867 203.468C541.067 198.268 539.867 188.401 539.2 181.868C538.667 175.201 537.6 165.334 536.8 159.868C536 154.401 534.4 140.801 533.2 129.868C527.733 80.8011 527.6 80.0011 523.2 74.9345C520.667 72.1345 519.2 69.0678 519.467 67.4678C519.867 64.8011 521.2 64.4011 532.267 63.0678C539.067 62.1345 545.067 61.0678 545.6 60.6678C546 60.1345 549.2 59.8678 552.533 60.1345C558.4 60.5345 558.533 60.6678 558.933 65.3345ZM1156.53 66.4011C1162.8 67.3345 1173.6 68.9345 1180.53 70.0011C1187.6 71.0678 1195.6 71.8678 1198.27 71.8678H1203.2V78.8011C1203.2 82.6678 1202.27 91.7345 1200.93 98.8011C1198.67 111.334 1198.4 111.868 1195.07 111.868C1190.8 111.868 1187.73 108.534 1186.67 102.534C1184 89.0678 1179.07 84.2678 1167.07 83.6011L1159.87 83.2011L1157.47 100.534C1156.13 110.001 1154.27 122.268 1153.33 127.601C1151.6 138.134 1151.73 139.068 1156.27 140.401C1160.93 141.868 1164.27 140.134 1168.53 133.734C1172.13 128.668 1173.33 127.868 1177.47 127.868H1182.13L1181.47 135.468C1179.2 159.334 1177.73 169.734 1176.4 171.334C1172.8 175.734 1164.53 171.334 1164.53 165.068C1164.53 160.801 1159.33 155.868 1154.53 155.868C1149.2 155.868 1148.93 156.668 1147.87 170.134C1147.33 175.868 1146.13 184.801 1145.07 190.134C1144 195.468 1143.2 204.534 1143.2 210.268C1143.2 219.068 1143.6 221.201 1145.87 223.201C1148.67 225.734 1149.33 230.001 1147.33 233.068C1146.4 234.534 1144.13 234.534 1135.07 233.468C1128.93 232.668 1120.53 231.601 1116.53 231.068C1112.53 230.668 1108.4 229.601 1107.6 228.934C1104.67 226.534 1105.73 222.268 1110.27 218.001C1115.33 213.334 1114.8 215.734 1125.2 137.868C1126.27 129.068 1128.13 115.601 1129.33 107.868C1132.13 87.8678 1132.13 78.6678 1129.33 74.1345C1127.73 71.7345 1127.2 69.3345 1127.73 67.0678C1128.67 63.7345 1128.93 63.6011 1136.93 64.2678C1141.47 64.5345 1150.27 65.4678 1156.53 66.4011ZM502.933 70.4011C503.2 72.1345 502.133 75.8678 500.667 78.6678C497.467 84.2678 497.6 86.6678 501.2 109.868C505.467 137.068 506.133 140.934 507.333 151.201C508 157.068 509.2 164.001 509.867 166.534C510.667 169.068 511.2 173.601 511.2 176.534C511.2 179.468 512 186.001 513.067 191.201C514.133 196.268 515.733 205.601 516.667 211.868C517.467 218.134 518.4 225.068 518.8 227.468C519.467 232.001 518 233.468 510.267 235.201C505.2 236.268 503.6 234.801 496.8 222.268C487.333 204.801 485.6 201.734 483.333 197.868C481.067 193.868 476.267 185.201 466.533 167.201C463.733 162.001 461.067 157.201 460.533 156.534C460 155.734 457.2 150.934 454.4 145.868C446 130.268 444.933 128.801 444.133 131.068C443.733 132.134 444.133 138.001 445.2 144.134C446.267 150.268 448 160.934 449.067 167.868C450.133 174.801 451.733 184.668 452.533 189.868C453.467 194.934 454.533 203.734 455.067 209.201C456.267 220.268 458.667 227.201 463.067 231.068C464.533 232.534 465.867 235.068 465.867 236.801C465.867 240.801 462 242.268 447.867 243.868C442 244.534 434.533 245.734 431.2 246.401C410 250.934 404.667 251.868 400.267 251.868C395.333 251.868 395.2 251.734 395.2 247.201C395.2 244.534 396.133 240.534 397.333 238.401C399.2 234.668 399.2 233.734 396.667 226.668C391.867 212.668 389.6 208.934 386.533 209.734C385.067 210.268 379.733 211.201 374.533 211.868C368.667 212.801 364.533 214.001 363.6 215.468C362.533 216.801 361.867 222.001 361.867 228.801C361.867 239.601 362 240.001 366.667 245.068C370.133 249.068 371.333 251.334 370.933 254.134C370.533 258.268 370.4 258.268 349.2 261.868C341.867 263.068 333.467 264.934 330.533 265.868C327.6 266.801 322.8 268.001 319.867 268.401C316.933 268.801 312.933 269.468 310.933 270.001C307.867 270.668 307.2 270.268 306.4 267.201C305.867 265.201 306.267 261.334 307.067 258.401C308.667 253.334 307.333 239.334 304.933 235.468C304.4 234.668 303.6 231.201 303.067 227.868C302.667 224.534 301.467 218.801 300.533 215.201C299.733 211.468 298.133 205.201 297.2 201.201C296.267 197.201 294.8 191.201 293.867 187.868C293.067 184.534 291.867 179.201 291.2 175.868C289.6 168.134 286.533 154.801 283.6 143.868C281.467 135.868 281.333 135.601 280.267 139.201C279.733 141.468 279.733 146.534 280.533 150.534C281.2 154.534 282.133 164.801 282.533 173.201C283.2 186.401 284.933 214.401 287.867 262.801C288.533 273.601 288.4 274.534 285.733 275.868C279.6 279.201 277.6 276.934 270 258.934C266.133 249.601 261.2 238.134 259.067 233.468C256.933 228.934 255.2 224.668 255.2 224.001C255.2 223.334 254.4 221.068 253.333 218.934C251.467 215.334 250 211.734 245.467 201.201C241.6 191.734 238.933 185.734 237.067 182.134C236 180.001 235.2 177.734 235.2 177.068C235.2 176.401 233.467 172.134 231.333 167.601C229.2 162.934 227.067 157.868 226.533 156.134C225.467 152.534 223.2 153.468 223.2 157.468C223.2 159.068 224 163.334 225.067 167.068C226.133 170.801 228 178.001 229.2 183.201C230.4 188.268 232.133 195.868 233.2 199.868C234.133 203.868 235.733 210.134 236.533 213.868C237.467 217.468 238.667 222.934 239.2 225.868C239.733 228.801 240.933 234.134 241.867 237.868C242.667 241.468 244.267 247.868 245.333 251.868C246.267 255.868 247.333 260.801 247.733 262.668C248.133 264.534 250.667 268.401 253.2 271.201C256.667 274.801 257.867 277.201 257.6 279.601C257.2 282.534 256.133 283.334 249.867 284.801C240.133 287.334 230.667 288.801 228.8 288.134C226.533 287.468 226.933 279.734 229.2 276.668C231.733 273.334 231.733 269.734 229.067 258.801C227.867 253.868 226.133 246.534 225.2 242.534C224.267 238.534 222.8 232.534 221.867 229.201C221.067 225.868 219.867 220.534 219.333 217.201C218.8 213.868 217.733 209.068 216.933 206.534C216.133 204.001 214.4 197.068 213.2 191.201C212 185.334 210.133 177.201 209.2 173.201C207.067 164.668 203.6 150.001 202.667 145.068C202.267 143.068 199.467 139.068 196.4 136.001C191.333 130.668 191.2 130.134 192.933 127.468C194 125.868 196.267 124.401 198 124.134C199.733 123.868 204.267 122.934 207.867 121.868C225.6 117.068 229.733 116.668 232.533 119.201C234 120.534 235.2 122.401 235.2 123.334C235.2 124.268 236 126.668 237.067 128.801C238 130.801 239.867 134.801 241.067 137.601C242.133 140.268 244 144.534 245.067 146.934C246.133 149.201 250.8 160.534 255.6 171.868C260.4 183.201 265.6 194.934 267.2 197.868L269.867 203.201L269.333 193.201C266.4 135.201 265.6 122.534 264.667 118.534C263.333 112.668 264.933 107.868 268.133 107.868C269.467 107.868 273.2 107.068 276.533 106.001C287.467 102.534 301.6 99.6011 303.067 100.534C306.267 102.401 307.067 106.001 305.067 109.734C302.667 114.534 302.667 121.068 305.067 129.734C306.133 133.468 308 140.668 309.2 145.868C310.4 150.934 312.133 158.534 313.2 162.534C314.133 166.534 316 174.668 317.333 180.534C318.533 186.401 320.267 194.134 321.2 197.868C325.333 214.134 326.267 218.268 327.467 225.068C328.133 228.934 329.2 233.334 329.867 234.668C330.667 236.001 331.2 238.401 331.2 240.001C331.2 244.401 336.4 251.868 339.333 251.868C345.067 251.868 345.467 247.068 346.533 176.401C347.333 118.934 347.2 109.068 345.467 105.734C344.4 103.601 343.867 101.068 344.133 100.134C345.2 97.4678 362.933 86.2678 365.467 86.8011C366.8 87.0678 369.2 90.9345 371.6 96.5345C373.733 101.734 376.267 107.601 377.2 109.868C378.133 112.001 380.8 118.668 383.2 124.534C385.467 130.401 388.267 136.934 389.2 139.201C390.133 141.334 392.8 148.001 395.2 153.868C397.6 159.734 400.267 166.268 401.2 168.534C402.133 170.668 404.933 177.334 407.2 183.201C412.133 195.601 414 200.134 416.8 206.534C418 209.068 420.267 214.534 421.867 218.534C423.467 222.534 426.667 228.401 428.933 231.601L433.067 237.201L436.133 234.268C438.667 231.868 439.2 230.001 439.2 223.468C439.2 219.068 438.267 210.668 437.2 204.668C435.067 192.401 432.8 178.001 431.2 165.201C430.533 160.401 428.8 148.401 427.333 138.534C425.733 128.668 423.867 115.468 423.2 109.334C421.733 97.3345 420.933 95.2011 415.867 89.7345C414 87.7345 412.533 84.8011 412.533 83.2011C412.533 80.8011 413.733 79.8678 418.933 78.4011C422.4 77.3345 428.933 76.5345 433.6 76.5345H442L447.467 86.5345C450.533 92.0011 454 98.2678 455.333 100.534C456.667 102.668 459.333 107.468 461.2 111.201C463.067 114.801 465.733 119.601 467.067 121.868C468.267 124.001 472 130.668 475.2 136.534C478.4 142.401 482.133 148.934 483.467 151.201C484.8 153.334 486.4 156.668 487.2 158.401C488.267 160.934 488.933 161.334 490.267 160.001C491.467 158.801 491.2 155.868 489.467 147.334C488.267 141.201 487.2 134.534 487.2 132.534C487.2 130.401 486.267 123.601 485.2 117.334C484.133 111.068 482.533 101.468 481.733 96.0011C480.533 87.8678 479.467 85.3345 475.733 81.2011C473.2 78.4011 471.2 75.6011 471.2 74.8011C471.2 71.8678 478.267 68.6678 486.933 67.7345C500.533 66.4011 502.4 66.6678 502.933 70.4011ZM1229.87 77.2011C1232.4 78.0011 1238.8 79.2011 1243.87 79.8678C1263.6 82.4011 1286.13 86.4011 1288.27 87.7345C1289.2 88.2678 1289.07 92.9345 1287.6 102.534C1284.13 126.001 1282 129.601 1274.8 123.868C1272 121.734 1271.2 119.868 1271.2 116.134C1271.2 105.601 1261.6 96.0011 1251.2 95.8678C1245.07 95.8678 1243.2 97.8678 1243.2 104.001C1243.2 106.668 1242.4 112.934 1241.33 118.001C1239.33 127.601 1235.87 147.601 1235.87 149.868C1235.87 150.534 1237.33 151.868 1239.07 152.801C1243.6 154.934 1248.8 152.534 1252.8 146.534C1254.93 143.334 1257.2 141.734 1259.87 141.468C1265.73 140.801 1267.07 143.601 1265.07 152.801C1264.13 157.068 1262.53 165.868 1261.33 172.401C1260.13 179.068 1258.4 185.334 1257.2 186.401C1255.47 188.134 1254.8 188.134 1251.6 185.601C1249.2 183.868 1247.6 181.201 1247.07 178.001C1246.13 172.268 1241.6 167.868 1236.53 167.868C1232.4 167.868 1231.2 169.868 1231.2 176.801C1231.2 179.334 1230.4 185.468 1229.33 190.401C1226.8 202.001 1224.4 216.401 1223.6 224.268C1223.07 229.468 1223.47 231.334 1225.6 233.601C1229.47 237.734 1230.53 242.934 1227.87 245.201C1226.27 246.534 1223.87 246.668 1215.47 245.334C1193.2 241.868 1188.53 240.801 1187.2 239.201C1185.33 236.934 1187.47 231.468 1191.73 228.401C1195.2 225.734 1199.2 214.001 1199.2 205.868C1199.2 203.734 1200.13 198.534 1201.2 194.534C1202.27 190.534 1203.2 184.801 1203.2 181.734C1203.2 178.801 1204.13 173.334 1205.2 169.734C1206.27 166.134 1207.2 161.334 1207.2 159.068C1207.2 156.801 1208 150.801 1209.07 145.734C1210.13 140.668 1212 130.268 1213.2 122.534C1214.4 114.801 1216 106.001 1216.67 102.934C1218.4 95.0678 1218.13 91.4678 1215.87 87.0678C1213.73 82.9345 1213.2 78.2678 1214.8 76.8011C1216.13 75.4678 1224.67 75.7345 1229.87 77.2011ZM1322.53 93.8678C1334.4 96.5345 1349.33 99.4678 1360.13 101.334C1365.33 102.268 1370.4 103.334 1371.2 103.868C1372.93 104.934 1371.73 116.001 1368.53 129.868C1367.6 133.468 1366.67 137.868 1366.4 139.468C1365.07 146.268 1353.87 141.068 1353.87 133.734C1353.87 126.134 1350.8 119.601 1345.47 115.734C1339.6 111.468 1332.53 110.668 1329.87 113.734C1329.07 114.801 1327.87 118.934 1327.2 122.801C1325.73 132.134 1323.33 144.134 1321.07 153.334C1318.27 164.401 1318.53 167.601 1322.53 168.668C1326.4 169.601 1331.47 166.801 1334.67 161.734C1337.87 157.068 1341.2 155.468 1344.53 157.201C1347.47 158.801 1348 163.334 1345.87 170.534C1345.07 173.068 1343.87 178.534 1343.2 182.534C1340.67 198.401 1339.2 202.534 1336.13 202.534C1332.27 202.534 1327.2 197.334 1327.2 193.201C1327.2 188.534 1324 184.268 1319.87 183.468C1315.87 182.801 1314.67 184.934 1312.4 196.534C1310.53 206.668 1307.47 221.468 1305.07 232.268C1301.87 246.534 1302.13 247.068 1312.53 247.601C1317.2 247.868 1322.4 247.734 1324 247.334C1327.47 246.401 1335.2 238.668 1335.2 236.134C1335.2 233.334 1340.27 225.601 1342.53 224.668C1343.6 224.268 1346.13 224.534 1348 225.334C1351.2 226.534 1351.47 227.068 1350.8 232.268C1349.6 241.068 1347.07 253.201 1344.67 261.201C1342.53 268.401 1342.4 268.534 1337.87 268.268C1335.33 268.134 1328.67 266.934 1323.2 265.868C1317.73 264.668 1308.8 262.801 1303.6 261.734C1298.27 260.668 1289.2 258.934 1283.6 257.734C1277.87 256.534 1271.87 255.334 1270.27 255.068C1265.6 254.268 1266 246.268 1270.67 243.201C1274.53 240.668 1279.07 231.601 1279.2 226.534C1279.2 224.668 1280 219.334 1281.2 214.534C1282.27 209.734 1284 201.068 1285.2 195.201C1286.4 189.334 1288 181.868 1288.8 178.534C1289.6 175.201 1290.67 169.468 1291.2 165.868C1291.73 162.134 1292.8 156.801 1293.6 153.868C1294.4 150.934 1296 143.468 1297.2 137.201C1298.4 130.934 1300.4 121.468 1301.6 116.134C1303.6 107.068 1303.6 106.134 1301.47 102.668C1299.07 98.6678 1298.53 93.0678 1300.13 91.3345C1301.33 90.1345 1311.6 91.3345 1322.53 93.8678ZM1396 109.068C1396.67 109.734 1400.27 110.934 1403.87 111.601C1407.6 112.268 1413.6 113.601 1417.2 114.534C1420.93 115.334 1427.2 116.934 1431.2 117.868C1435.2 118.934 1442.13 120.668 1446.67 121.734C1451.07 122.934 1456.4 123.868 1458.27 123.868C1463.2 123.868 1464 126.668 1461.47 135.601C1460.27 139.734 1458.13 147.734 1456.8 153.201C1454 164.134 1452.13 165.734 1446.53 162.001C1443.87 160.268 1443.2 158.668 1443.2 154.134C1443.07 145.601 1439.07 137.868 1432.8 134.668C1430 133.201 1426 131.868 1423.87 131.601C1420.53 131.201 1420 131.734 1417.73 138.534C1416.4 142.534 1415.33 147.334 1415.33 149.068C1415.2 150.801 1414.27 154.934 1413.2 158.401C1410 168.668 1407.2 180.534 1407.2 184.134C1407.2 191.201 1416.53 189.868 1422.67 181.868C1425.6 177.868 1427.07 177.068 1430.4 177.468C1434.27 177.868 1434.53 178.134 1434.27 183.201C1434.13 188.134 1432.4 196.668 1428.8 209.868C1428 212.801 1426.93 216.801 1426.53 218.801C1426 221.601 1425.07 222.534 1422.8 222.534C1418.13 222.534 1415.6 219.734 1414.8 213.868C1414 208.401 1408.93 202.534 1405.2 202.534C1402.67 202.534 1400.67 206.534 1399.2 214.268C1398.53 217.734 1397.07 224.134 1396 228.534C1395.07 232.934 1393.47 239.468 1392.53 243.201C1391.73 246.801 1390.27 252.534 1389.2 255.734C1388.27 258.934 1387.73 262.401 1388.13 263.468C1389.2 266.134 1394.27 267.868 1401.6 267.868C1410.4 267.868 1416.67 263.334 1421.07 253.868C1424.8 246.134 1429.33 243.334 1433.73 246.134C1437.07 248.401 1435.33 262.001 1428.93 282.934L1426.93 289.334L1420.8 288.534C1417.33 288.001 1413.07 287.068 1411.2 286.401C1409.33 285.734 1405.2 284.668 1401.87 283.868C1392.53 281.868 1380.4 279.068 1374.53 277.468C1371.6 276.668 1365.2 274.934 1360.27 273.601C1351.87 271.468 1351.2 270.934 1351.2 267.601C1351.2 265.068 1352.67 262.934 1356.53 259.868C1359.47 257.468 1362.13 254.134 1362.53 252.134C1362.93 250.134 1364.13 245.068 1365.2 240.801C1366.27 236.668 1368 229.734 1369.07 225.468C1370.13 221.334 1371.73 214.801 1372.53 211.201C1373.47 207.468 1374.67 202.134 1375.2 199.201C1375.73 196.268 1376.8 192.001 1377.6 189.868C1378.27 187.601 1379.87 181.334 1381.07 175.868C1383.2 166.534 1384 163.068 1389.2 142.801C1392.27 130.401 1392.53 126.668 1390.93 120.534C1388.8 112.401 1391.87 105.201 1396 109.068ZM1530.53 134.134C1529.6 137.468 1529.47 137.601 1528.53 135.201C1527.33 131.734 1528.4 127.201 1530.27 129.068C1530.93 129.734 1531.07 132.001 1530.53 134.134Z" fill="black"/>
<path d="M778.533 64.1344C777.333 68.0011 775.6 77.0678 774.533 84.2678C773.067 95.0678 773.067 99.0678 774.533 107.601C776.533 119.601 778.267 123.468 788 136.268C799.733 151.868 805.467 164.668 808.533 182.001C809.467 187.334 809.867 193.068 809.333 195.068C808.667 197.601 808.933 198.534 810.4 198.534C813.067 198.534 813.867 197.068 816 188.134C821.333 165.734 816.133 145.201 799.2 122.534C786.667 105.601 783.2 95.0678 783.2 72.8011C783.2 64.1344 782.667 57.2011 782 57.2011C781.333 57.2011 779.733 60.4011 778.533 64.1344Z" fill="black"/>
<path d="M1063.07 70.5345C1056.4 74.4011 1053.47 84.9345 1050 116.934C1043.2 179.201 1042.53 188.268 1044.4 197.468C1046.53 207.734 1050 211.868 1056.4 211.868C1062.53 211.868 1065.73 208.534 1068.8 199.201C1074.27 182.401 1081.47 102.668 1079.33 83.8678C1077.87 71.8678 1070.8 66.0011 1063.07 70.5345Z" fill="black"/>
<path d="M361.867 171.068C361.867 199.201 362.133 199.868 369.333 197.201C371.2 196.401 374.4 195.868 376.4 195.868C382.267 195.868 384.133 192.668 381.6 187.468C380.533 185.068 378.667 180.801 377.467 177.868C376.4 174.934 373.6 168.001 371.467 162.534C369.2 157.068 367.067 151.201 366.533 149.601C366.133 148.134 364.933 146.401 363.867 146.001C362.133 145.334 361.867 148.934 361.867 171.068Z" fill="black"/>
</svg>